<svg width="22" height="17" viewBox="0 0 25 17" fill="#5E636B" xmlns="http://www.w3.org/2000/svg"><path class="st0" d="M6.2,0.13h2.52C8.67,1.61,8.65,3.7,8.65,6.42c0,1.07-0.21,1.95-0.63,2.63c-0.41,0.68-0.96,1.18-1.64,1.48C5.7,10.84,4.94,11,4.1,11c-0.83,0-1.58-0.13-2.23-0.38c-0.66-0.24-1.16-0.57-1.5-0.98l0.59-2.06C1.43,7.85,1.88,8.05,2.3,8.17c0.42,0.13,0.86,0.19,1.31,0.19c1.49,0,2.23-0.65,2.23-1.94c0-0.19,0-0.32,0.01-0.4c0-0.05,0-0.13,0-0.22c0.01-0.09,0.01-0.21,0-0.35C5.41,6.72,4.46,7.36,3.02,7.36c-0.59,0-1.11-0.16-1.58-0.49C0.99,6.55,0.63,6.12,0.38,5.57C0.13,5.01,0,4.4,0,3.73c0-0.68,0.13-1.31,0.38-1.87C0.63,1.29,0.99,0.83,1.44,0.5C1.9,0.17,2.41,0,2.98,0c1.48,0,2.44,0.53,2.89,1.6L6.2,0.13z M4.38,5.2c0.2,0,0.41-0.04,0.63-0.13c0.22-0.1,0.41-0.25,0.56-0.46c0.16-0.22,0.24-0.48,0.24-0.8c0-0.56-0.12-0.95-0.37-1.19C5.2,2.39,4.84,2.26,4.36,2.26c-0.42,0-0.75,0.14-1,0.43S2.99,3.36,2.99,3.81c0,0.41,0.13,0.75,0.39,1.01C3.66,5.08,3.99,5.2,4.38,5.2z"></path><path class="st0" d="M19.94,7.5c0.07-1.18,0.1-2.4,0.1-3.65c0-0.4-0.1-0.72-0.3-0.94c-0.19-0.23-0.45-0.35-0.77-0.35c-0.3,0-0.56,0.13-0.77,0.4c-0.21,0.27-0.32,0.66-0.32,1.17V4.11c0,1.59,0.02,2.72,0.07,3.38h-2.95c0.05-1.32,0.08-2.54,0.08-3.65c0-0.4-0.1-0.71-0.29-0.94c-0.18-0.23-0.42-0.35-0.71-0.35c-0.31,0-0.56,0.13-0.77,0.4c-0.2,0.26-0.32,0.62-0.35,1.08c-0.02,0.68-0.03,1.17-0.03,1.46c0,0.61,0.02,1.28,0.05,2.01H9.83C9.9,6.2,9.94,4.98,9.94,3.83S9.9,1.45,9.83,0.13c0.58,0.03,1.02,0.04,1.33,0.04c0.32,0,0.77-0.01,1.33-0.04l0.39,2c0.2-0.73,0.52-1.26,0.96-1.6C14.28,0.18,14.78,0,15.35,0c0.68,0,1.24,0.19,1.67,0.58c0.44,0.39,0.71,0.89,0.81,1.51c0.2-0.64,0.54-1.15,1.01-1.52C19.31,0.19,19.85,0,20.45,0c0.79,0,1.4,0.27,1.85,0.82c0.45,0.54,0.67,1.28,0.67,2.22v2.24c0,1.02,0.01,1.75,0.03,2.21H19.94z"></path><path class="st0" d="M7.76,15c-0.21,0-0.39-0.07-0.54-0.2C7.07,14.67,7,14.51,7,14.32c0-0.19,0.07-0.34,0.22-0.48c0.15-0.13,0.33-0.2,0.54-0.2c0.21,0,0.38,0.07,0.53,0.2c0.15,0.13,0.23,0.29,0.23,0.47c0,0.19-0.08,0.35-0.23,0.48C8.15,14.93,7.97,15,7.76,15z"></path><path class="st0" d="M13.75,10c-0.03,0.79-0.04,1.61-0.04,2.47c0,0.85,0.01,1.67,0.04,2.47h-1.63l0.02-0.76c-0.14,0.28-0.34,0.49-0.61,0.63c-0.26,0.13-0.58,0.2-0.94,0.2c-0.31,0-0.59-0.08-0.84-0.23c-0.25-0.16-0.44-0.37-0.58-0.63c-0.14-0.27-0.21-0.57-0.21-0.89c0-0.32,0.07-0.62,0.21-0.89c0.14-0.28,0.33-0.51,0.58-0.68c0.25-0.17,0.54-0.26,0.86-0.26c0.37,0,0.69,0.07,0.96,0.21c0.27,0.14,0.47,0.35,0.6,0.63c0-0.24-0.01-0.63-0.03-1.16c-0.02-0.52-0.03-0.88-0.03-1.09H13.75zM11.36,13.93c0.24,0,0.43-0.06,0.58-0.17c0.15-0.12,0.22-0.3,0.22-0.56c0-0.22-0.07-0.39-0.22-0.49c-0.15-0.11-0.34-0.16-0.56-0.16c-0.22,0-0.4,0.06-0.55,0.18c-0.14,0.12-0.22,0.27-0.22,0.47c0,0.22,0.07,0.39,0.2,0.53C10.94,13.87,11.12,13.93,11.36,13.93z"></path><path class="st0" d="M15.79,13.35c0.04,0.19,0.13,0.34,0.28,0.46c0.15,0.11,0.37,0.17,0.65,0.17c0.2,0,0.39-0.03,0.57-0.1c0.18-0.07,0.32-0.17,0.43-0.3c0.32,0.14,0.75,0.29,1.28,0.45c-0.15,0.3-0.42,0.53-0.81,0.71c-0.39,0.17-0.9,0.26-1.53,0.26c-0.82,0-1.42-0.16-1.82-0.49c-0.39-0.33-0.58-0.77-0.58-1.31c0-0.53,0.19-0.96,0.58-1.29c0.39-0.33,0.99-0.49,1.82-0.49c0.49,0,0.92,0.07,1.28,0.22c0.36,0.14,0.64,0.34,0.83,0.6c0.19,0.25,0.29,0.55,0.29,0.88c0,0.11,0,0.19-0.01,0.25H15.79zM16.75,12.37c-0.24,0-0.44,0.04-0.59,0.12c-0.15,0.08-0.26,0.19-0.32,0.33h1.7c-0.06-0.14-0.15-0.24-0.28-0.32C17.13,12.41,16.96,12.37,16.75,12.37z"></path><path class="st0" d="M24,11.47c-0.52,1.23-0.98,2.39-1.38,3.46h-2.26c-0.43-1.15-0.9-2.31-1.39-3.46h1.69l0.84,2.61l0.83-2.61H24z"></path></svg>